# xmcd
#
# Track frame offsets: 
#        150
#        20970
#        38242
#        53917
#        78877
#        90697
#        108967
#        124582
#        137324
#        155084
#        171839
#        187626
#        209368
#        226415
#        239150
#        262415
#        283160
#        301692
#        319234
#        333416
#
# Disc length: 4662 seconds
#
# Revision: 0
# Processed by: cddbd v1.5.2PL0 Copyright (c) Steve Scherf et al.
# Submitted via: ExactAudioCopy v0.99pb5
#
DISCID=1c123414
DTITLE=Candye Kane - Best of Candye Kane
DYEAR=2011
DGENRE=Blues
TTITLE0=You Need a Great Big Woman
TTITLE1=I'll Make It Right
TTITLE2=For Your Love
TTITLE3=Sharktown
TTITLE4=Babylon Boogie
TTITLE5=Please Tell Me a Lie
TTITLE6=I Didn't Listen to My Heart
TTITLE7=I'm Not Gonna Cry Today
TTITLE8=I Put a Hex On You
TTITLE9=Dance Hall Girls
TTITLE10=What Happened to the Girl I Met Here
TTITLE11=Superhero
TTITLE12=She Wore a Red Carnation
TTITLE13=I Got a Secret
TTITLE14=It Should Be Rainin'
TTITLE15=Love 'em and Forgive 'em
TTITLE16=I Could Fall for You
TTITLE17=Gifted in the Ways of Love
TTITLE18=I'm the Toughest Girl Alive
TTITLE19=Some Lazy Afternoon
EXTD=
EXTT0=
EXTT1=
EXTT2=
EXTT3=
EXTT4=
EXTT5=
EXTT6=
EXTT7=
EXTT8=
EXTT9=
EXTT10=
EXTT11=
EXTT12=
EXTT13=
EXTT14=
EXTT15=
EXTT16=
EXTT17=
EXTT18=
EXTT19=
PLAYORDER=
